<svg xmlns="http://www.w3.org/2000/svg" width="103.356" height="306.861" viewBox="0 0 103.356 306.861">
  <g id="Grupo_1054587" data-name="Grupo 1054587" transform="translate(-1251 -23128.656)">
    <g id="Grupo_1032423" data-name="Grupo 1032423" transform="translate(1240.649 23128.656)">
      <g id="Grupo_152551" data-name="Grupo 152551" transform="translate(0 204.568) rotate(-90)">
        <rect id="Rectángulo_45220" data-name="Rectángulo 45220" width="190.431" height="56.706" transform="translate(204.568 113.706) rotate(180)" fill="#e8e8e8"/>
        <g id="Grupo_152556" data-name="Grupo 152556" transform="translate(0 31.412)">
          <rect id="Rectángulo_45221" data-name="Rectángulo 45221" width="9.636" height="9.636" transform="translate(143.333 40.952)" fill="#5573c6"/>
          <rect id="Rectángulo_45222" data-name="Rectángulo 45222" width="9.636" height="9.636" transform="translate(122.857 40.952)" fill="#5573c6"/>
          <rect id="Rectángulo_45223" data-name="Rectángulo 45223" width="9.636" height="9.636" transform="translate(102.381 40.952)" fill="#5573c6"/>
          <rect id="Rectángulo_45224" data-name="Rectángulo 45224" width="9.636" height="9.636" transform="translate(81.905 40.952)" fill="#5573c6"/>
          <rect id="Rectángulo_45225" data-name="Rectángulo 45225" width="9.636" height="9.636" transform="translate(61.429 40.952)" fill="#5573c6"/>
          <rect id="Rectángulo_45226" data-name="Rectángulo 45226" width="9.636" height="9.636" transform="translate(40.952 40.952)" fill="#5573c6"/>
          <rect id="Rectángulo_45227" data-name="Rectángulo 45227" width="9.636" height="9.636" transform="translate(20.476 40.952)" fill="#5573c6"/>
          <rect id="Rectángulo_45228" data-name="Rectángulo 45228" width="9.636" height="9.636" transform="translate(0 40.952)" fill="#5573c6"/>
          <rect id="Rectángulo_45232" data-name="Rectángulo 45232" width="9.636" height="9.636" transform="translate(143.333 20.476)" fill="#5573c6"/>
          <rect id="Rectángulo_45233" data-name="Rectángulo 45233" width="9.636" height="9.636" transform="translate(122.857 20.476)" fill="#5573c6"/>
          <rect id="Rectángulo_45234" data-name="Rectángulo 45234" width="9.636" height="9.636" transform="translate(102.381 20.476)" fill="#5573c6"/>
          <rect id="Rectángulo_45235" data-name="Rectángulo 45235" width="9.636" height="9.636" transform="translate(81.905 20.476)" fill="#5573c6"/>
          <rect id="Rectángulo_45236" data-name="Rectángulo 45236" width="9.636" height="9.636" transform="translate(61.429 20.476)" fill="#5573c6"/>
          <rect id="Rectángulo_45237" data-name="Rectángulo 45237" width="9.636" height="9.636" transform="translate(40.952 20.476)" fill="#5573c6"/>
          <rect id="Rectángulo_45238" data-name="Rectángulo 45238" width="9.636" height="9.636" transform="translate(20.476 20.476)" fill="#5573c6"/>
          <rect id="Rectángulo_45239" data-name="Rectángulo 45239" width="9.636" height="9.636" transform="translate(0 20.476)" fill="#5573c6"/>
          <rect id="Rectángulo_45243" data-name="Rectángulo 45243" width="9.636" height="9.636" transform="translate(143.333)" fill="#5573c6"/>
          <rect id="Rectángulo_45244" data-name="Rectángulo 45244" width="9.636" height="9.636" transform="translate(122.857)" fill="#5573c6"/>
          <rect id="Rectángulo_45245" data-name="Rectángulo 45245" width="9.636" height="9.636" transform="translate(102.381)" fill="#5573c6"/>
          <rect id="Rectángulo_45246" data-name="Rectángulo 45246" width="9.636" height="9.636" transform="translate(81.905)" fill="#5573c6"/>
          <rect id="Rectángulo_45247" data-name="Rectángulo 45247" width="9.636" height="9.636" transform="translate(61.429)" fill="#5573c6"/>
          <rect id="Rectángulo_45248" data-name="Rectángulo 45248" width="9.636" height="9.636" transform="translate(40.952)" fill="#5573c6"/>
          <rect id="Rectángulo_45249" data-name="Rectángulo 45249" width="9.636" height="9.636" transform="translate(20.476)" fill="#5573c6"/>
          <rect id="Rectángulo_45250" data-name="Rectángulo 45250" width="9.636" height="9.636" fill="#5573c6"/>
        </g>
      </g>
    </g>
    <path id="Trazado_782047" data-name="Trazado 782047" d="M85.773,26.014A22.314,22.314,0,0,0,71.755,38.107a23.869,23.869,0,0,0,3.4,25.717A23.61,23.61,0,0,0,93.1,71.943a24.381,24.381,0,0,0,3.146-.2,25.646,25.646,0,0,0,3.855-.8,22.305,22.305,0,0,0,14.017-12.093A23.643,23.643,0,0,0,85.773,26.014m25.7,31.64A19.369,19.369,0,0,1,99.3,68.157,20.743,20.743,0,0,1,74.4,39.306,19.357,19.357,0,0,1,86.571,28.8a23.241,23.241,0,0,1,3.423-.707,21.908,21.908,0,0,1,2.777-.177,20.715,20.715,0,0,1,15.747,7.111,20.979,20.979,0,0,1,2.954,22.626m29.746-13.622a2.774,2.774,0,0,0-2.579-2.512l-6.447-.475a40.4,40.4,0,0,0-3.307-9.992l4.906-4.221a2.816,2.816,0,0,0,.569-3.563A48.306,48.306,0,0,0,123.927,11.2a2.811,2.811,0,0,0-3.6.046l-4.888,4.218a39.413,39.413,0,0,0-9.407-4.72l.478-6.459a2.781,2.781,0,0,0-2.11-2.92A49.419,49.419,0,0,0,88.5.2a2.755,2.755,0,0,0-2.521,2.579L85.5,9.24a39.236,39.236,0,0,0-9.995,3.289L71.289,7.642a2.785,2.785,0,0,0-3.557-.573A48.359,48.359,0,0,0,55.649,17.481a2.816,2.816,0,0,0,.043,3.612l4.233,4.891a40.115,40.115,0,0,0-4.735,9.4l-6.444-.475a2.779,2.779,0,0,0-2.92,2.1,48.007,48.007,0,0,0-1.169,15.936,2.778,2.778,0,0,0,2.579,2.506l6.447.475a39.919,39.919,0,0,0,3.307,9.976l-4.906,4.236a2.812,2.812,0,0,0-.569,3.563,48.385,48.385,0,0,0,10.43,12.068,2.781,2.781,0,0,0,3.606-.046l4.888-4.221a39.777,39.777,0,0,0,9.4,4.717l-.475,6.465a2.778,2.778,0,0,0,2.11,2.92,48.719,48.719,0,0,0,7.906,1.23q1.832.137,3.657.137c1.468,0,2.93-.067,4.376-.2l.07-.009A2.8,2.8,0,0,0,99.9,94.2l.475-6.465a39.87,39.87,0,0,0,9.992-3.289l4.221,4.888a2.776,2.776,0,0,0,3.557.573,48.027,48.027,0,0,0,12.075-10.439,2.78,2.78,0,0,0-.046-3.6l-4.221-4.891a39.94,39.94,0,0,0,4.732-9.386l6.447.475a2.789,2.789,0,0,0,2.917-2.123,50.239,50.239,0,0,0,1.236-7.912,48.641,48.641,0,0,0-.064-8m-2.832,7.787a47.181,47.181,0,0,1-1.139,7.348l-7.482-.551a1.438,1.438,0,0,0-1.489,1.011,37.038,37.038,0,0,1-5.335,10.588,1.443,1.443,0,0,0,.07,1.8l4.839,5.762a42.494,42.494,0,0,1-11.2,9.513l-4.827-5.594a1.445,1.445,0,0,0-1.769-.338,36.819,36.819,0,0,1-11.277,3.712,1.448,1.448,0,0,0-1.218,1.322l-.646,7.522a46.58,46.58,0,0,1-7.321.04,36.068,36.068,0,0,1-7.318-1.246l.545-7.4A1.447,1.447,0,0,0,81.8,83.819,36.861,36.861,0,0,1,71.2,78.5a1.456,1.456,0,0,0-1.8.073L63.64,83.411a42.746,42.746,0,0,1-9.51-11.2l5.616-4.845a1.441,1.441,0,0,0,.335-1.769,36.941,36.941,0,0,1-3.73-11.255,1.439,1.439,0,0,0-1.325-1.215l-7.5-.649a45.422,45.422,0,0,1-.055-7.339,35.865,35.865,0,0,1,1.258-7.318l7.379.539a.718.718,0,0,0,.116.006,1.441,1.441,0,0,0,1.373-1.014,37.225,37.225,0,0,1,5.344-10.61,1.451,1.451,0,0,0-.076-1.8l-4.857-5.759a42.8,42.8,0,0,1,11.219-9.5l4.827,5.594a1.453,1.453,0,0,0,1.769.338,36.265,36.265,0,0,1,11.268-3.709,1.448,1.448,0,0,0,1.227-1.325l.646-7.522a45.847,45.847,0,0,1,7.321-.037A36.291,36.291,0,0,1,103.6,4.267l-.545,7.4a1.449,1.449,0,0,0,1.017,1.489,36.233,36.233,0,0,1,10.6,5.317,1.448,1.448,0,0,0,1.8-.073l5.762-4.839a42.676,42.676,0,0,1,9.507,11.2l-5.606,4.824a1.444,1.444,0,0,0-.341,1.766,37.221,37.221,0,0,1,3.73,11.28,1.444,1.444,0,0,0,1.325,1.215l7.5.649a45.092,45.092,0,0,1,.04,7.318" transform="translate(1206.555 23338.539)" fill="#afafaf"/>
  </g>
</svg>
