<svg id="Grupo_1050352" data-name="Grupo 1050352" xmlns="http://www.w3.org/2000/svg" width="28.923" height="87.541" viewBox="0 0 28.923 87.541">
  <g id="Grupo_152551" data-name="Grupo 152551" transform="translate(0 87.541) rotate(-90)">
    <rect id="Rectángulo_45220" data-name="Rectángulo 45220" width="75.882" height="20.001" transform="translate(87.541 20.001) rotate(180)" fill="#e8e8e8"/>
    <g id="Grupo_152556" data-name="Grupo 152556" transform="translate(0 11.08)">
      <rect id="Rectángulo_45221" data-name="Rectángulo 45221" width="3.399" height="3.399" transform="translate(50.557 14.445)" fill="#0b67d1"/>
      <rect id="Rectángulo_45222" data-name="Rectángulo 45222" width="3.399" height="3.399" transform="translate(43.335 14.445)" fill="#0b67d1"/>
      <rect id="Rectángulo_45223" data-name="Rectángulo 45223" width="3.399" height="3.399" transform="translate(36.112 14.445)" fill="#0b67d1"/>
      <rect id="Rectángulo_45224" data-name="Rectángulo 45224" width="3.399" height="3.399" transform="translate(28.89 14.445)" fill="#0b67d1"/>
      <rect id="Rectángulo_45225" data-name="Rectángulo 45225" width="3.399" height="3.399" transform="translate(21.667 14.445)" fill="#0b67d1"/>
      <rect id="Rectángulo_45226" data-name="Rectángulo 45226" width="3.399" height="3.399" transform="translate(14.445 14.445)" fill="#0b67d1"/>
      <rect id="Rectángulo_45227" data-name="Rectángulo 45227" width="3.399" height="3.399" transform="translate(7.222 14.445)" fill="#0b67d1"/>
      <rect id="Rectángulo_45228" data-name="Rectángulo 45228" width="3.399" height="3.399" transform="translate(0 14.445)" fill="#0b67d1"/>
      <rect id="Rectángulo_45232" data-name="Rectángulo 45232" width="3.399" height="3.399" transform="translate(50.557 7.222)" fill="#0b67d1"/>
      <rect id="Rectángulo_45233" data-name="Rectángulo 45233" width="3.399" height="3.399" transform="translate(43.335 7.222)" fill="#0b67d1"/>
      <rect id="Rectángulo_45234" data-name="Rectángulo 45234" width="3.399" height="3.399" transform="translate(36.112 7.222)" fill="#0b67d1"/>
      <rect id="Rectángulo_45235" data-name="Rectángulo 45235" width="3.399" height="3.399" transform="translate(28.89 7.222)" fill="#0b67d1"/>
      <rect id="Rectángulo_45236" data-name="Rectángulo 45236" width="3.399" height="3.399" transform="translate(21.667 7.222)" fill="#0b67d1"/>
      <rect id="Rectángulo_45237" data-name="Rectángulo 45237" width="3.399" height="3.399" transform="translate(14.445 7.222)" fill="#0b67d1"/>
      <rect id="Rectángulo_45238" data-name="Rectángulo 45238" width="3.399" height="3.399" transform="translate(7.222 7.222)" fill="#0b67d1"/>
      <rect id="Rectángulo_45239" data-name="Rectángulo 45239" width="3.399" height="3.399" transform="translate(0 7.222)" fill="#0b67d1"/>
      <rect id="Rectángulo_45243" data-name="Rectángulo 45243" width="3.399" height="3.399" transform="translate(50.557)" fill="#0b67d1"/>
      <rect id="Rectángulo_45244" data-name="Rectángulo 45244" width="3.399" height="3.399" transform="translate(43.335)" fill="#0b67d1"/>
      <rect id="Rectángulo_45245" data-name="Rectángulo 45245" width="3.399" height="3.399" transform="translate(36.112)" fill="#0b67d1"/>
      <rect id="Rectángulo_45246" data-name="Rectángulo 45246" width="3.399" height="3.399" transform="translate(28.89)" fill="#0b67d1"/>
      <rect id="Rectángulo_45247" data-name="Rectángulo 45247" width="3.399" height="3.399" transform="translate(21.667)" fill="#0b67d1"/>
      <rect id="Rectángulo_45248" data-name="Rectángulo 45248" width="3.399" height="3.399" transform="translate(14.445)" fill="#0b67d1"/>
      <rect id="Rectángulo_45249" data-name="Rectángulo 45249" width="3.399" height="3.399" transform="translate(7.222)" fill="#0b67d1"/>
      <rect id="Rectángulo_45250" data-name="Rectángulo 45250" width="3.399" height="3.399" fill="#0b67d1"/>
    </g>
  </g>
</svg>
