<svg xmlns="http://www.w3.org/2000/svg" xmlns:xlink="http://www.w3.org/1999/xlink" width="113.986" height="44.781" viewBox="0 0 113.986 44.781">
  <defs>
    <clipPath id="clip-path">
      <rect id="Rectángulo_59032" data-name="Rectángulo 59032" width="113.986" height="44.781" fill="none"/>
    </clipPath>
    <clipPath id="clip-path-3">
      <rect id="Rectángulo_59018" data-name="Rectángulo 59018" width="58.758" height="40.639" fill="none"/>
    </clipPath>
    <clipPath id="clip-path-4">
      <rect id="Rectángulo_59019" data-name="Rectángulo 59019" width="8.031" height="7.763" fill="none"/>
    </clipPath>
    <clipPath id="clip-path-5">
      <rect id="Rectángulo_59020" data-name="Rectángulo 59020" width="6.48" height="9.425" fill="none"/>
    </clipPath>
    <clipPath id="clip-path-6">
      <rect id="Rectángulo_59021" data-name="Rectángulo 59021" width="0.88" height="10.711" fill="none"/>
    </clipPath>
    <clipPath id="clip-path-7">
      <rect id="Rectángulo_59022" data-name="Rectángulo 59022" width="0.881" height="10.791" fill="none"/>
    </clipPath>
    <clipPath id="clip-path-8">
      <rect id="Rectángulo_59023" data-name="Rectángulo 59023" width="6.48" height="9.422" fill="none"/>
    </clipPath>
    <clipPath id="clip-path-9">
      <rect id="Rectángulo_59024" data-name="Rectángulo 59024" width="44.99" height="31.741" fill="none"/>
    </clipPath>
    <clipPath id="clip-path-10">
      <rect id="Rectángulo_59025" data-name="Rectángulo 59025" width="5.548" height="8.306" fill="none"/>
    </clipPath>
    <clipPath id="clip-path-11">
      <rect id="Rectángulo_59026" data-name="Rectángulo 59026" width="5.84" height="6.668" fill="none"/>
    </clipPath>
    <clipPath id="clip-path-12">
      <rect id="Rectángulo_59027" data-name="Rectángulo 59027" width="3.411" height="8.869" fill="none"/>
    </clipPath>
    <clipPath id="clip-path-13">
      <rect id="Rectángulo_59028" data-name="Rectángulo 59028" width="3.471" height="8.873" fill="none"/>
    </clipPath>
    <clipPath id="clip-path-14">
      <rect id="Rectángulo_59029" data-name="Rectángulo 59029" width="3.312" height="6.722" fill="none"/>
    </clipPath>
    <clipPath id="clip-path-15">
      <rect id="Rectángulo_59030" data-name="Rectángulo 59030" width="2.703" height="9.255" fill="none"/>
    </clipPath>
  </defs>
  <g id="Grupo_1033320" data-name="Grupo 1033320" transform="translate(0 0)">
    <g id="Grupo_182783" data-name="Grupo 182783" transform="translate(0 0)" clip-path="url(#clip-path)">
      <g id="Grupo_182782" data-name="Grupo 182782" transform="translate(0 0)">
        <g id="Grupo_182781" data-name="Grupo 182781" clip-path="url(#clip-path)">
          <path id="Trazado_235987" data-name="Trazado 235987" d="M83.543,18.286l.014,7.37a.715.715,0,0,0,.661.7l5.038.319v7.1h0a.433.433,0,0,0,.247.36l5.312,3.067a1.33,1.33,0,0,0,.673.137v.011a1.264,1.264,0,0,0,.5-.1l5.384-2.494a1.978,1.978,0,0,1,1.232-.073,31.955,31.955,0,0,0,4.18.994,1.016,1.016,0,0,1,.778.756l.674,3.548a.8.8,0,0,0,.292.464v0a.8.8,0,0,0,.5.185h7.809a.774.774,0,0,0,.446-.169.819.819,0,0,0,.1-.091.87.87,0,0,0,.11-.1V40.2c.043-.073.114-.13.13-.213l.674-3.548a1.015,1.015,0,0,1,.778-.756,32,32,0,0,0,4.179-.994,1.981,1.981,0,0,1,1.232.073l5.384,2.495a1.263,1.263,0,0,0,.325.054v.036a1.511,1.511,0,0,0,.189,0,1.238,1.238,0,0,0,.14,0,1.26,1.26,0,0,0,.508-.133.089.089,0,0,1,.013,0l5.312-3.067a.521.521,0,0,0,.188-.18.064.064,0,0,1,.011-.01.327.327,0,0,0,.041-.141c0-.008.007-.015.008-.022h0V32.1l0-1.259v-.079l0-3.7-.21-.36.283-.022,4.873-.309.093-.006c.05,0,.081-.048.127-.061a.452.452,0,0,0,.441-.411c.03-.076.091-.138.093-.223V14.984a.716.716,0,0,0-.662-.7L136.6,13.96l0-7.091,0,.009a.424.424,0,0,0-.245-.378l-5.311-3.067a1.433,1.433,0,0,0-1.175-.053l-5.384,2.494a1.974,1.974,0,0,1-1.232.074,31.98,31.98,0,0,0-4.18-.994,1.017,1.017,0,0,1-.778-.756L117.62.651A.832.832,0,0,0,116.834,0h-7.809a.832.832,0,0,0-.786.651L107.564,4.2a1.017,1.017,0,0,1-.778.756,31.96,31.96,0,0,0-4.179.994,1.981,1.981,0,0,1-1.232-.073L95.992,3.381a1.433,1.433,0,0,0-1.175.052L89.5,6.5a.42.42,0,0,0-.244.386h0V13.96l-5.036.319a.715.715,0,0,0-.662.7v3.163a.686.686,0,0,0-.015.139m20.412,2.507c4.955-2.861,12.99-2.861,17.945,0,.375.216.722.438,1.043.662a10.967,10.967,0,0,1-1.042.684c-4.955,2.861-12.991,2.861-17.946,0a11.082,11.082,0,0,1-1.037-.68c.317-.226.66-.448,1.037-.666" transform="translate(-28.316 0)" fill="#27debf"/>
          <g id="Grupo_182744" data-name="Grupo 182744" transform="translate(55.227 0)" opacity="0.2">
            <g id="Grupo_182743" data-name="Grupo 182743">
              <g id="Grupo_182742" data-name="Grupo 182742" clip-path="url(#clip-path-3)">
                <path id="Trazado_235988" data-name="Trazado 235988" d="M83.543,18.286l.014,7.37a.715.715,0,0,0,.661.7l5.038.319v7.1h0a.433.433,0,0,0,.247.36l5.312,3.067a1.33,1.33,0,0,0,.673.137v.011a1.264,1.264,0,0,0,.5-.1l5.384-2.494a1.978,1.978,0,0,1,1.232-.073,31.955,31.955,0,0,0,4.18.994,1.016,1.016,0,0,1,.778.756l.674,3.548a.8.8,0,0,0,.292.464v0a.8.8,0,0,0,.5.185h7.809a.774.774,0,0,0,.446-.169.819.819,0,0,0,.1-.091.87.87,0,0,0,.11-.1V40.2c.043-.073.114-.13.13-.213l.674-3.548a1.015,1.015,0,0,1,.778-.756,32,32,0,0,0,4.179-.994,1.981,1.981,0,0,1,1.232.073l5.384,2.495a1.263,1.263,0,0,0,.325.054v.036a1.511,1.511,0,0,0,.189,0,1.238,1.238,0,0,0,.14,0,1.26,1.26,0,0,0,.508-.133.089.089,0,0,1,.013,0l5.312-3.067a.521.521,0,0,0,.188-.18.064.064,0,0,1,.011-.01.327.327,0,0,0,.041-.141c0-.008.007-.015.008-.022h0V32.1l0-1.259v-.079l0-3.7-.21-.36.283-.022,4.873-.309.093-.006c.05,0,.081-.048.127-.061a.452.452,0,0,0,.441-.411c.03-.076.091-.138.093-.223V14.984a.716.716,0,0,0-.662-.7L136.6,13.96l0-7.091,0,.009a.424.424,0,0,0-.245-.378l-5.311-3.067a1.433,1.433,0,0,0-1.175-.053l-5.384,2.494a1.974,1.974,0,0,1-1.232.074,31.98,31.98,0,0,0-4.18-.994,1.017,1.017,0,0,1-.778-.756L117.62.651A.832.832,0,0,0,116.834,0h-7.809a.832.832,0,0,0-.786.651L107.564,4.2a1.017,1.017,0,0,1-.778.756,31.96,31.96,0,0,0-4.179.994,1.981,1.981,0,0,1-1.232-.073L95.992,3.381a1.433,1.433,0,0,0-1.175.052L89.5,6.5a.42.42,0,0,0-.244.386h0V13.96l-5.036.319a.715.715,0,0,0-.662.7v3.163a.686.686,0,0,0-.015.139m20.412,2.507c4.955-2.861,12.99-2.861,17.945,0,.375.216.722.438,1.043.662a10.967,10.967,0,0,1-1.042.684c-4.955,2.861-12.991,2.861-17.946,0a11.082,11.082,0,0,1-1.037-.68c.317-.226.66-.448,1.037-.666" transform="translate(-83.543)"/>
              </g>
            </g>
          </g>
          <path id="Trazado_235989" data-name="Trazado 235989" d="M129.875,3.381l-5.384,2.494a1.974,1.974,0,0,1-1.232.074,31.768,31.768,0,0,0-4.18-.994A1.019,1.019,0,0,1,118.3,4.2L117.628.651A.832.832,0,0,0,116.841,0h-7.809a.832.832,0,0,0-.786.651L107.572,4.2a1.017,1.017,0,0,1-.778.756,31.853,31.853,0,0,0-4.179.993,1.971,1.971,0,0,1-1.232-.073L96,3.381a1.433,1.433,0,0,0-1.175.053L89.512,6.5a.4.4,0,0,0-.036.719l4.209,3.028a.561.561,0,0,1,.078.864,10.6,10.6,0,0,0-1.5,2.084,1.308,1.308,0,0,1-.957.635l-7.077.448a.715.715,0,0,0-.662.7v3.949a.715.715,0,0,0,.661.7l7.077.448a1.306,1.306,0,0,1,.957.635,10.6,10.6,0,0,0,1.5,2.084.561.561,0,0,1-.078.864L89.476,26.7a.4.4,0,0,0,.036.719l5.312,3.066A1.43,1.43,0,0,0,96,30.535l5.383-2.494a1.969,1.969,0,0,1,1.232-.073,32.006,32.006,0,0,0,4.18.994,1.017,1.017,0,0,1,.778.756l.674,3.548a.831.831,0,0,0,.786.65h7.81a.832.832,0,0,0,.787-.651l.673-3.549a1.018,1.018,0,0,1,.778-.756,31.981,31.981,0,0,0,4.18-.994,1.974,1.974,0,0,1,1.232.073l5.384,2.494a1.431,1.431,0,0,0,1.175-.053l5.311-3.066a.4.4,0,0,0,.036-.719l-4.209-3.029a.561.561,0,0,1-.078-.863,10.591,10.591,0,0,0,1.5-2.085,1.31,1.31,0,0,1,.957-.635l7.078-.448a.715.715,0,0,0,.661-.7V14.984a.715.715,0,0,0-.661-.7l-7.078-.448a1.307,1.307,0,0,1-.956-.635,10.6,10.6,0,0,0-1.5-2.085.561.561,0,0,1,.077-.864l4.21-3.028a.4.4,0,0,0-.036-.719l-5.312-3.067a1.429,1.429,0,0,0-1.175-.053m-7.965,8.4c4.955,2.861,4.955,7.5,0,10.361s-12.991,2.861-17.946,0-4.955-7.5,0-10.361,12.989-2.861,17.945,0" transform="translate(-28.323 0)" fill="#27debf"/>
          <g id="Grupo_182747" data-name="Grupo 182747" transform="translate(105.954 18.932)" opacity="0.15">
            <g id="Grupo_182746" data-name="Grupo 182746">
              <g id="Grupo_182745" data-name="Grupo 182745" clip-path="url(#clip-path-4)">
                <path id="Trazado_235990" data-name="Trazado 235990" d="M162.4,36.4l-2.119-1.524V29.861a.982.982,0,0,1,.293-.071l7.078-.448a.711.711,0,0,0,.66-.7v6.735a.716.716,0,0,1-.66.692h0l-.089.007-4.025.255Z" transform="translate(-160.278 -28.638)"/>
              </g>
            </g>
          </g>
          <g id="Grupo_182750" data-name="Grupo 182750" transform="translate(95.763 27.932)" opacity="0.15">
            <g id="Grupo_182749" data-name="Grupo 182749">
              <g id="Grupo_182748" data-name="Grupo 182748" clip-path="url(#clip-path-5)">
                <path id="Trazado_235991" data-name="Trazado 235991" d="M144.861,42.253a1.56,1.56,0,0,1,.407.108l5.381,2.494a1.378,1.378,0,0,0,.691.087v6.725a1.614,1.614,0,0,1-.362,0h0v-.036a1.14,1.14,0,0,1-.327-.054l-5.385-2.493a1.606,1.606,0,0,0-.4-.093Z" transform="translate(-144.861 -42.253)"/>
              </g>
            </g>
          </g>
          <g id="Grupo_182753" data-name="Grupo 182753" transform="translate(89.203 29.446)" opacity="0.15">
            <g id="Grupo_182752" data-name="Grupo 182752">
              <g id="Grupo_182751" data-name="Grupo 182751" clip-path="url(#clip-path-6)">
                <path id="Trazado_235992" data-name="Trazado 235992" d="M134.938,48.614a.735.735,0,0,0,.1-.253l.675-3.548a.822.822,0,0,1,.105-.27v6.731a.751.751,0,0,0-.105.262l-.675,3.548a.41.41,0,0,1-.1.17Z" transform="translate(-134.938 -44.544)"/>
              </g>
            </g>
          </g>
          <g id="Grupo_182756" data-name="Grupo 182756" transform="translate(79.143 29.449)" opacity="0.15">
            <g id="Grupo_182755" data-name="Grupo 182755">
              <g id="Grupo_182754" data-name="Grupo 182754" clip-path="url(#clip-path-7)">
                <path id="Trazado_235993" data-name="Trazado 235993" d="M119.721,44.548a.852.852,0,0,1,.1.266l.674,3.548a.769.769,0,0,0,.1.256v6.72a.751.751,0,0,1-.1-.253l-.674-3.548a.677.677,0,0,0-.1-.242Z" transform="translate(-119.721 -44.548)"/>
              </g>
            </g>
          </g>
          <g id="Grupo_182759" data-name="Grupo 182759" transform="translate(66.984 27.932)" opacity="0.15">
            <g id="Grupo_182758" data-name="Grupo 182758">
              <g id="Grupo_182757" data-name="Grupo 182757" clip-path="url(#clip-path-8)">
                <path id="Trazado_235994" data-name="Trazado 235994" d="M101.328,44.942a1.354,1.354,0,0,0,.689-.087l5.385-2.494a1.563,1.563,0,0,1,.405-.108v6.726a1.52,1.52,0,0,0-.405.106l-5.385,2.494a1.238,1.238,0,0,1-.5.1v-.011c-.063,0-.125,0-.187-.006Z" transform="translate(-101.328 -42.253)"/>
              </g>
            </g>
          </g>
          <path id="Trazado_235995" data-name="Trazado 235995" d="M44.99,36.1v-.011a.289.289,0,0,0-.037-.127l0,0c0-2.314.006-6.326,0-6.578,0,0,0-.008,0-.013a.543.543,0,0,0-.114-.315l-2.055-2.864a.978.978,0,0,0-.846-.4l-5.37.9a1.658,1.658,0,0,1-1.027-.293c-.334-.232-.693-.457-1.065-.672l.006-4.271,0,.007c.005-.171-.161-.335-.426-.4l-5.453-1.3a1.018,1.018,0,0,0-.877.166l-2.608,2.743a1.237,1.237,0,0,1-.856.266,28.653,28.653,0,0,0-3.551.006,1.4,1.4,0,0,1-.958-.416l-2.334-2.455a1.072,1.072,0,0,0-.911-.335l-5.667,1.352a.372.372,0,0,0-.293.374.1.1,0,0,0,0,.02c0,.236,0,2.262,0,4.233a13.836,13.836,0,0,0-1.262.805,1.456,1.456,0,0,1-.934.158l-5.2-.875a.92.92,0,0,0-.826.241L.059,29.2a.232.232,0,0,0-.048.139v.023c0,.477-.013,8.126-.013,8.174a.29.29,0,0,0,.044.131C.044,40.016.038,41.7.034,41.8a.566.566,0,0,0,.116.333L2.205,45a.978.978,0,0,0,.846.4l5.369-.9a1.678,1.678,0,0,1,1.027.293c.336.235.693.457,1.066.675l0,4.253c-.011.175.159.345.428.41l5.448,1.3a1.019,1.019,0,0,0,.883-.165l2.607-2.743a1.218,1.218,0,0,1,.856-.266,29.449,29.449,0,0,0,3.551-.006,1.4,1.4,0,0,1,.956.413l2.336,2.458a1.081,1.081,0,0,0,.911.335L34.15,50.1a.362.362,0,0,0,.29-.311c.015-.093.008-4.317.008-4.317q.665-.378,1.264-.8a1.433,1.433,0,0,1,.933-.162l5.2.879a.918.918,0,0,0,.825-.244l2.258-3.147a.256.256,0,0,0,.048-.145c0-.149.01-5.454.009-5.742Zm-30.332.167q.371-.263.808-.515a15.576,15.576,0,0,1,14.1,0c.283.165.55.335.792.5a7.6,7.6,0,0,1-.856.559,15.709,15.709,0,0,1-10.812,1.218,12.074,12.074,0,0,1-3.2-1.224,7.927,7.927,0,0,1-.833-.541" transform="translate(0 -6.686)" fill="#27debf"/>
          <g id="Grupo_182762" data-name="Grupo 182762" transform="translate(0 13.04)" opacity="0.2">
            <g id="Grupo_182761" data-name="Grupo 182761">
              <g id="Grupo_182760" data-name="Grupo 182760" clip-path="url(#clip-path-9)">
                <path id="Trazado_235996" data-name="Trazado 235996" d="M44.99,36.1v-.011a.289.289,0,0,0-.037-.127l0,0c0-2.314.006-6.326,0-6.578,0,0,0-.008,0-.013a.543.543,0,0,0-.114-.315l-2.055-2.864a.978.978,0,0,0-.846-.4l-5.37.9a1.658,1.658,0,0,1-1.027-.293c-.334-.232-.693-.457-1.065-.672l.006-4.271,0,.007c.005-.171-.161-.335-.426-.4l-5.453-1.3a1.018,1.018,0,0,0-.877.166l-2.608,2.743a1.237,1.237,0,0,1-.856.266,28.653,28.653,0,0,0-3.551.006,1.4,1.4,0,0,1-.958-.416l-2.334-2.455a1.072,1.072,0,0,0-.911-.335l-5.667,1.352a.372.372,0,0,0-.293.374.1.1,0,0,0,0,.02c0,.236,0,2.262,0,4.233a13.836,13.836,0,0,0-1.262.805,1.456,1.456,0,0,1-.934.158l-5.2-.875a.92.92,0,0,0-.826.241L.059,29.2a.232.232,0,0,0-.048.139v.023c0,.477-.013,8.126-.013,8.174a.29.29,0,0,0,.044.131C.044,40.016.038,41.7.034,41.8a.566.566,0,0,0,.116.333L2.205,45a.978.978,0,0,0,.846.4l5.369-.9a1.678,1.678,0,0,1,1.027.293c.336.235.693.457,1.066.675l0,4.253c-.011.175.159.345.428.41l5.448,1.3a1.019,1.019,0,0,0,.883-.165l2.607-2.743a1.218,1.218,0,0,1,.856-.266,29.449,29.449,0,0,0,3.551-.006,1.4,1.4,0,0,1,.956.413l2.336,2.458a1.081,1.081,0,0,0,.911.335L34.15,50.1a.362.362,0,0,0,.29-.311c.015-.093.008-4.317.008-4.317q.665-.378,1.264-.8a1.433,1.433,0,0,1,.933-.162l5.2.879a.918.918,0,0,0,.825-.244l2.258-3.147a.256.256,0,0,0,.048-.145c0-.149.01-5.454.009-5.742Zm-30.332.167q.371-.263.808-.515a15.576,15.576,0,0,1,14.1,0c.283.165.55.335.792.5a7.6,7.6,0,0,1-.856.559,15.709,15.709,0,0,1-10.812,1.218,12.074,12.074,0,0,1-3.2-1.224,7.927,7.927,0,0,1-.833-.541" transform="translate(0 -19.726)"/>
              </g>
            </g>
          </g>
          <g id="Grupo_182765" data-name="Grupo 182765" transform="translate(0.003 22.672)" opacity="0.15">
            <g id="Grupo_182764" data-name="Grupo 182764">
              <g id="Grupo_182763" data-name="Grupo 182763" clip-path="url(#clip-path-10)">
                <path id="Trazado_235997" data-name="Trazado 235997" d="M5.548,36.744a5.6,5.6,0,0,0-.007,1.776.573.573,0,0,1-.364.627L.275,40.7a.317.317,0,0,0-.23.312c0,.1,0,1.594,0,1.594A.291.291,0,0,1,0,42.484c0-2.785.011-7.438.011-7.846V34.3c.008.148.156.293.393.367L5.04,36.133a.635.635,0,0,1,.508.611" transform="translate(-0.004 -34.297)"/>
              </g>
            </g>
          </g>
          <g id="Grupo_182768" data-name="Grupo 182768" transform="translate(2.776 32.048)" opacity="0.15">
            <g id="Grupo_182767" data-name="Grupo 182767">
              <g id="Grupo_182766" data-name="Grupo 182766" clip-path="url(#clip-path-11)">
                <path id="Trazado_235998" data-name="Trazado 235998" d="M10.04,48.481v5.755a.836.836,0,0,0-.2,0l-5.369.9a.638.638,0,0,1-.274-.022V49.375a.7.7,0,0,0,.286.019l5.369-.905a.734.734,0,0,1,.185-.007" transform="translate(-4.2 -48.479)"/>
              </g>
            </g>
          </g>
          <g id="Grupo_182771" data-name="Grupo 182771" transform="translate(16.793 35.895)" opacity="0.15">
            <g id="Grupo_182770" data-name="Grupo 182770">
              <g id="Grupo_182769" data-name="Grupo 182769" clip-path="url(#clip-path-12)">
                <path id="Trazado_235999" data-name="Trazado 235999" d="M28.814,54.3V60.05a.83.83,0,0,0-.33.185l-2.607,2.744a.8.8,0,0,1-.475.189V57.417a.772.772,0,0,0,.486-.185l2.61-2.747a.822.822,0,0,1,.315-.186" transform="translate(-25.403 -54.299)"/>
              </g>
            </g>
          </g>
          <g id="Grupo_182774" data-name="Grupo 182774" transform="translate(24.624 35.862)" opacity="0.15">
            <g id="Grupo_182773" data-name="Grupo 182773">
              <g id="Grupo_182772" data-name="Grupo 182772" clip-path="url(#clip-path-13)">
                <path id="Trazado_236000" data-name="Trazado 236000" d="M40.72,57.374v5.747a1.167,1.167,0,0,1-.519-.3l-2.336-2.458a1.5,1.5,0,0,0-.615-.36V54.248a1.5,1.5,0,0,1,.627.364l2.336,2.455a1.192,1.192,0,0,0,.508.308" transform="translate(-37.249 -54.248)"/>
              </g>
            </g>
          </g>
          <g id="Grupo_182777" data-name="Grupo 182777" transform="translate(32.966 32.061)" opacity="0.15">
            <g id="Grupo_182776" data-name="Grupo 182776">
              <g id="Grupo_182775" data-name="Grupo 182775" clip-path="url(#clip-path-14)">
                <path id="Trazado_236001" data-name="Trazado 236001" d="M53.181,48.5V54.25a1.227,1.227,0,0,0-.567.171,14.83,14.83,0,0,1-1.265.8s.009-1.314.007-1.494a.541.541,0,0,0-.059-.233l-1.361-2.7a.49.49,0,0,1,.171-.683,15.864,15.864,0,0,0,2.518-1.442,1.126,1.126,0,0,1,.556-.175" transform="translate(-49.868 -48.499)"/>
              </g>
            </g>
          </g>
          <g id="Grupo_182780" data-name="Grupo 182780" transform="translate(42.285 29.421)" opacity="0.15">
            <g id="Grupo_182779" data-name="Grupo 182779">
              <g id="Grupo_182778" data-name="Grupo 182778" clip-path="url(#clip-path-15)">
                <path id="Trazado_236002" data-name="Trazado 236002" d="M66.668,44.505c0,.286-.007,5.591-.007,5.743a.287.287,0,0,1-.052.144L64.35,53.537a.654.654,0,0,1-.385.222V48.017a.707.707,0,0,0,.4-.226l2.254-3.148a.213.213,0,0,0,.048-.138" transform="translate(-63.965 -44.505)"/>
              </g>
            </g>
          </g>
          <path id="Trazado_236003" data-name="Trazado 236003" d="M10.552,21.467a.091.091,0,0,0,0,.02.531.531,0,0,0,.061.217l1.357,2.69a.488.488,0,0,1-.171.684c-.432.2-.853.416-1.252.643a14.264,14.264,0,0,0-1.262.805,1.459,1.459,0,0,1-.933.159l-5.2-.876a.918.918,0,0,0-.826.241L.065,29.2a.233.233,0,0,0-.048.139.143.143,0,0,1,0,.023c.009.147.156.291.4.365l4.631,1.47a.636.636,0,0,1,.506.613,5.586,5.586,0,0,0-.005,1.774.576.576,0,0,1-.364.627l-4.9,1.552a.312.312,0,0,0-.231.309.592.592,0,0,0,.116.318L2.223,39.25a.961.961,0,0,0,.846.4l5.369-.9a1.641,1.641,0,0,1,1.023.295,15.837,15.837,0,0,0,2.177,1.251c.318.157.5.435.391.644l-1.476,2.924c-.1.209.075.437.4.519l5.451,1.3a1.012,1.012,0,0,0,.879-.163l2.61-2.745a1.238,1.238,0,0,1,.855-.269,29.431,29.431,0,0,0,3.549,0,1.407,1.407,0,0,1,.959.412l2.336,2.458a1.092,1.092,0,0,0,.908.337l5.667-1.357a.4.4,0,0,0,.231-.606l-1.358-2.694a.491.491,0,0,1,.17-.684,15.9,15.9,0,0,0,2.516-1.444,1.417,1.417,0,0,1,.932-.161l5.205.873a.913.913,0,0,0,.826-.241l2.256-3.145a.215.215,0,0,0,.048-.139h0a.019.019,0,0,0,0-.011.273.273,0,0,0-.037-.127l0,0a.618.618,0,0,0-.356-.248l-4.631-1.464c-.325-.105-.545-.375-.506-.613a5.746,5.746,0,0,0,.005-1.774.568.568,0,0,1,.364-.627l4.9-1.553a.308.308,0,0,0,.225-.3s0-.008,0-.013a.537.537,0,0,0-.114-.315l-2.054-2.865a.979.979,0,0,0-.847-.4l-5.37.9a1.661,1.661,0,0,1-1.027-.293c-.334-.231-.693-.457-1.065-.671-.352-.2-.724-.4-1.109-.582-.321-.152-.5-.434-.393-.639l1.478-2.929a.244.244,0,0,0,.026-.115c.005-.172-.161-.336-.426-.4l-5.453-1.3a1.018,1.018,0,0,0-.877.167l-2.608,2.743a1.234,1.234,0,0,1-.855.266,28.662,28.662,0,0,0-3.551.007,1.4,1.4,0,0,1-.958-.417l-2.334-2.455a1.075,1.075,0,0,0-.911-.335l-5.667,1.352a.373.373,0,0,0-.293.374m20.611,8.411c.048.048.1.094.139.144.036.035.065.071.1.1.071.08.138.161.2.245s.145.2.212.3q.062.094.119.19c.019.03.036.061.054.091a3.523,3.523,0,0,1-.273,3.974A6.01,6.01,0,0,1,30.36,36.26a7.5,7.5,0,0,1-.855.558,15.71,15.71,0,0,1-10.812,1.218A12.074,12.074,0,0,1,15.5,36.811a7.7,7.7,0,0,1-.834-.541,5.587,5.587,0,0,1-1.7-1.891.076.076,0,0,1-.012-.026c-.02-.036-.038-.074-.056-.112a1.286,1.286,0,0,1-.052-.118A.813.813,0,0,1,12.791,34,3.516,3.516,0,0,1,13.3,30.52c2.107-2.936,7.938-4.331,13.02-3.114a10.029,10.029,0,0,1,4.844,2.472" transform="translate(-0.006 -6.686)" fill="#27debf"/>
        </g>
      </g>
      <g id="Grupo_981153" data-name="Grupo 981153" transform="translate(0 0)">
        <g id="Grupo_182781-2" data-name="Grupo 182781" clip-path="url(#clip-path)">
          <path id="Trazado_235987-2" data-name="Trazado 235987" d="M83.543,18.286l.014,7.37a.715.715,0,0,0,.661.7l5.038.319v7.1h0a.433.433,0,0,0,.247.36l5.312,3.067a1.33,1.33,0,0,0,.673.137v.011a1.264,1.264,0,0,0,.5-.1l5.384-2.494a1.978,1.978,0,0,1,1.232-.073,31.955,31.955,0,0,0,4.18.994,1.016,1.016,0,0,1,.778.756l.674,3.548a.8.8,0,0,0,.292.464v0a.8.8,0,0,0,.5.185h7.809a.774.774,0,0,0,.446-.169.819.819,0,0,0,.1-.091.87.87,0,0,0,.11-.1V40.2c.043-.073.114-.13.13-.213l.674-3.548a1.015,1.015,0,0,1,.778-.756,32,32,0,0,0,4.179-.994,1.981,1.981,0,0,1,1.232.073l5.384,2.495a1.263,1.263,0,0,0,.325.054v.036a1.511,1.511,0,0,0,.189,0,1.238,1.238,0,0,0,.14,0,1.26,1.26,0,0,0,.508-.133.089.089,0,0,1,.013,0l5.312-3.067a.521.521,0,0,0,.188-.18.064.064,0,0,1,.011-.01.327.327,0,0,0,.041-.141c0-.008.007-.015.008-.022h0V32.1l0-1.259v-.079l0-3.7-.21-.36.283-.022,4.873-.309.093-.006c.05,0,.081-.048.127-.061a.452.452,0,0,0,.441-.411c.03-.076.091-.138.093-.223V14.984a.716.716,0,0,0-.662-.7L136.6,13.96l0-7.091,0,.009a.424.424,0,0,0-.245-.378l-5.311-3.067a1.433,1.433,0,0,0-1.175-.053l-5.384,2.494a1.974,1.974,0,0,1-1.232.074,31.98,31.98,0,0,0-4.18-.994,1.017,1.017,0,0,1-.778-.756L117.62.651A.832.832,0,0,0,116.834,0h-7.809a.832.832,0,0,0-.786.651L107.564,4.2a1.017,1.017,0,0,1-.778.756,31.96,31.96,0,0,0-4.179.994,1.981,1.981,0,0,1-1.232-.073L95.992,3.381a1.433,1.433,0,0,0-1.175.052L89.5,6.5a.42.42,0,0,0-.244.386h0V13.96l-5.036.319a.715.715,0,0,0-.662.7v3.163a.686.686,0,0,0-.015.139m20.412,2.507c4.955-2.861,12.99-2.861,17.945,0,.375.216.722.438,1.043.662a10.967,10.967,0,0,1-1.042.684c-4.955,2.861-12.991,2.861-17.946,0a11.082,11.082,0,0,1-1.037-.68c.317-.226.66-.448,1.037-.666" transform="translate(-28.316 0)" fill="#b0c0d2"/>
          <path id="Trazado_235989-2" data-name="Trazado 235989" d="M129.875,3.381l-5.384,2.494a1.974,1.974,0,0,1-1.232.074,31.768,31.768,0,0,0-4.18-.994A1.019,1.019,0,0,1,118.3,4.2L117.628.651A.832.832,0,0,0,116.841,0h-7.809a.832.832,0,0,0-.786.651L107.572,4.2a1.017,1.017,0,0,1-.778.756,31.853,31.853,0,0,0-4.179.993,1.971,1.971,0,0,1-1.232-.073L96,3.381a1.433,1.433,0,0,0-1.175.053L89.512,6.5a.4.4,0,0,0-.036.719l4.209,3.028a.561.561,0,0,1,.078.864,10.6,10.6,0,0,0-1.5,2.084,1.308,1.308,0,0,1-.957.635l-7.077.448a.715.715,0,0,0-.662.7v3.949a.715.715,0,0,0,.661.7l7.077.448a1.306,1.306,0,0,1,.957.635,10.6,10.6,0,0,0,1.5,2.084.561.561,0,0,1-.078.864L89.476,26.7a.4.4,0,0,0,.036.719l5.312,3.066A1.43,1.43,0,0,0,96,30.535l5.383-2.494a1.969,1.969,0,0,1,1.232-.073,32.006,32.006,0,0,0,4.18.994,1.017,1.017,0,0,1,.778.756l.674,3.548a.831.831,0,0,0,.786.65h7.81a.832.832,0,0,0,.787-.651l.673-3.549a1.018,1.018,0,0,1,.778-.756,31.981,31.981,0,0,0,4.18-.994,1.974,1.974,0,0,1,1.232.073l5.384,2.494a1.431,1.431,0,0,0,1.175-.053l5.311-3.066a.4.4,0,0,0,.036-.719l-4.209-3.029a.561.561,0,0,1-.078-.863,10.591,10.591,0,0,0,1.5-2.085,1.31,1.31,0,0,1,.957-.635l7.078-.448a.715.715,0,0,0,.661-.7V14.984a.715.715,0,0,0-.661-.7l-7.078-.448a1.307,1.307,0,0,1-.956-.635,10.6,10.6,0,0,0-1.5-2.085.561.561,0,0,1,.077-.864l4.21-3.028a.4.4,0,0,0-.036-.719l-5.312-3.067a1.429,1.429,0,0,0-1.175-.053m-7.965,8.4c4.955,2.861,4.955,7.5,0,10.361s-12.991,2.861-17.946,0-4.955-7.5,0-10.361,12.989-2.861,17.945,0" transform="translate(-28.323 0)" fill="#12263f"/>
          <g id="Grupo_182747-2" data-name="Grupo 182747" transform="translate(105.954 18.932)" opacity="0.15">
            <g id="Grupo_182746-2" data-name="Grupo 182746">
              <g id="Grupo_182745-2" data-name="Grupo 182745" clip-path="url(#clip-path-4)">
                <path id="Trazado_235990-2" data-name="Trazado 235990" d="M162.4,36.4l-2.119-1.524V29.861a.982.982,0,0,1,.293-.071l7.078-.448a.711.711,0,0,0,.66-.7v6.735a.716.716,0,0,1-.66.692h0l-.089.007-4.025.255Z" transform="translate(-160.278 -28.638)"/>
              </g>
            </g>
          </g>
          <g id="Grupo_182750-2" data-name="Grupo 182750" transform="translate(95.763 27.932)" opacity="0.15">
            <g id="Grupo_182749-2" data-name="Grupo 182749">
              <g id="Grupo_182748-2" data-name="Grupo 182748" clip-path="url(#clip-path-5)">
                <path id="Trazado_235991-2" data-name="Trazado 235991" d="M144.861,42.253a1.56,1.56,0,0,1,.407.108l5.381,2.494a1.378,1.378,0,0,0,.691.087v6.725a1.614,1.614,0,0,1-.362,0h0v-.036a1.14,1.14,0,0,1-.327-.054l-5.385-2.493a1.606,1.606,0,0,0-.4-.093Z" transform="translate(-144.861 -42.253)"/>
              </g>
            </g>
          </g>
          <g id="Grupo_182753-2" data-name="Grupo 182753" transform="translate(89.203 29.446)" opacity="0.15">
            <g id="Grupo_182752-2" data-name="Grupo 182752">
              <g id="Grupo_182751-2" data-name="Grupo 182751" clip-path="url(#clip-path-6)">
                <path id="Trazado_235992-2" data-name="Trazado 235992" d="M134.938,48.614a.735.735,0,0,0,.1-.253l.675-3.548a.822.822,0,0,1,.105-.27v6.731a.751.751,0,0,0-.105.262l-.675,3.548a.41.41,0,0,1-.1.17Z" transform="translate(-134.938 -44.544)"/>
              </g>
            </g>
          </g>
          <g id="Grupo_182756-2" data-name="Grupo 182756" transform="translate(79.143 29.449)" opacity="0.15">
            <g id="Grupo_182755-2" data-name="Grupo 182755">
              <g id="Grupo_182754-2" data-name="Grupo 182754" clip-path="url(#clip-path-7)">
                <path id="Trazado_235993-2" data-name="Trazado 235993" d="M119.721,44.548a.852.852,0,0,1,.1.266l.674,3.548a.769.769,0,0,0,.1.256v6.72a.751.751,0,0,1-.1-.253l-.674-3.548a.677.677,0,0,0-.1-.242Z" transform="translate(-119.721 -44.548)"/>
              </g>
            </g>
          </g>
          <g id="Grupo_182759-2" data-name="Grupo 182759" transform="translate(66.984 27.932)" opacity="0.15">
            <g id="Grupo_182758-2" data-name="Grupo 182758">
              <g id="Grupo_182757-2" data-name="Grupo 182757" clip-path="url(#clip-path-8)">
                <path id="Trazado_235994-2" data-name="Trazado 235994" d="M101.328,44.942a1.354,1.354,0,0,0,.689-.087l5.385-2.494a1.563,1.563,0,0,1,.405-.108v6.726a1.52,1.52,0,0,0-.405.106l-5.385,2.494a1.238,1.238,0,0,1-.5.1v-.011c-.063,0-.125,0-.187-.006Z" transform="translate(-101.328 -42.253)"/>
              </g>
            </g>
          </g>
          <path id="Trazado_235995-2" data-name="Trazado 235995" d="M44.99,36.1v-.011a.289.289,0,0,0-.037-.127l0,0c0-2.314.006-6.326,0-6.578,0,0,0-.008,0-.013a.543.543,0,0,0-.114-.315l-2.055-2.864a.978.978,0,0,0-.846-.4l-5.37.9a1.658,1.658,0,0,1-1.027-.293c-.334-.232-.693-.457-1.065-.672l.006-4.271,0,.007c.005-.171-.161-.335-.426-.4l-5.453-1.3a1.018,1.018,0,0,0-.877.166l-2.608,2.743a1.237,1.237,0,0,1-.856.266,28.653,28.653,0,0,0-3.551.006,1.4,1.4,0,0,1-.958-.416l-2.334-2.455a1.072,1.072,0,0,0-.911-.335l-5.667,1.352a.372.372,0,0,0-.293.374.1.1,0,0,0,0,.02c0,.236,0,2.262,0,4.233a13.836,13.836,0,0,0-1.262.805,1.456,1.456,0,0,1-.934.158l-5.2-.875a.92.92,0,0,0-.826.241L.059,29.2a.232.232,0,0,0-.048.139v.023c0,.477-.013,8.126-.013,8.174a.29.29,0,0,0,.044.131C.044,40.016.038,41.7.034,41.8a.566.566,0,0,0,.116.333L2.205,45a.978.978,0,0,0,.846.4l5.369-.9a1.678,1.678,0,0,1,1.027.293c.336.235.693.457,1.066.675l0,4.253c-.011.175.159.345.428.41l5.448,1.3a1.019,1.019,0,0,0,.883-.165l2.607-2.743a1.218,1.218,0,0,1,.856-.266,29.449,29.449,0,0,0,3.551-.006,1.4,1.4,0,0,1,.956.413l2.336,2.458a1.081,1.081,0,0,0,.911.335L34.15,50.1a.362.362,0,0,0,.29-.311c.015-.093.008-4.317.008-4.317q.665-.378,1.264-.8a1.433,1.433,0,0,1,.933-.162l5.2.879a.918.918,0,0,0,.825-.244l2.258-3.147a.256.256,0,0,0,.048-.145c0-.149.01-5.454.009-5.742Zm-30.332.167q.371-.263.808-.515a15.576,15.576,0,0,1,14.1,0c.283.165.55.335.792.5a7.6,7.6,0,0,1-.856.559,15.709,15.709,0,0,1-10.812,1.218,12.074,12.074,0,0,1-3.2-1.224,7.927,7.927,0,0,1-.833-.541" transform="translate(0 -6.686)" fill="#95a2b2"/>
          <g id="Grupo_182765-2" data-name="Grupo 182765" transform="translate(0.003 22.672)" opacity="0.15">
            <g id="Grupo_182764-2" data-name="Grupo 182764">
              <g id="Grupo_182763-2" data-name="Grupo 182763" clip-path="url(#clip-path-10)">
                <path id="Trazado_235997-2" data-name="Trazado 235997" d="M5.548,36.744a5.6,5.6,0,0,0-.007,1.776.573.573,0,0,1-.364.627L.275,40.7a.317.317,0,0,0-.23.312c0,.1,0,1.594,0,1.594A.291.291,0,0,1,0,42.484c0-2.785.011-7.438.011-7.846V34.3c.008.148.156.293.393.367L5.04,36.133a.635.635,0,0,1,.508.611" transform="translate(-0.004 -34.297)"/>
              </g>
            </g>
          </g>
          <g id="Grupo_182768-2" data-name="Grupo 182768" transform="translate(2.776 32.048)" opacity="0.15">
            <g id="Grupo_182767-2" data-name="Grupo 182767">
              <g id="Grupo_182766-2" data-name="Grupo 182766" clip-path="url(#clip-path-11)">
                <path id="Trazado_235998-2" data-name="Trazado 235998" d="M10.04,48.481v5.755a.836.836,0,0,0-.2,0l-5.369.9a.638.638,0,0,1-.274-.022V49.375a.7.7,0,0,0,.286.019l5.369-.905a.734.734,0,0,1,.185-.007" transform="translate(-4.2 -48.479)"/>
              </g>
            </g>
          </g>
          <g id="Grupo_182771-2" data-name="Grupo 182771" transform="translate(16.793 35.895)" opacity="0.15">
            <g id="Grupo_182770-2" data-name="Grupo 182770">
              <g id="Grupo_182769-2" data-name="Grupo 182769" clip-path="url(#clip-path-12)">
                <path id="Trazado_235999-2" data-name="Trazado 235999" d="M28.814,54.3V60.05a.83.83,0,0,0-.33.185l-2.607,2.744a.8.8,0,0,1-.475.189V57.417a.772.772,0,0,0,.486-.185l2.61-2.747a.822.822,0,0,1,.315-.186" transform="translate(-25.403 -54.299)"/>
              </g>
            </g>
          </g>
          <g id="Grupo_182774-2" data-name="Grupo 182774" transform="translate(24.624 35.862)" opacity="0.15">
            <g id="Grupo_182773-2" data-name="Grupo 182773">
              <g id="Grupo_182772-2" data-name="Grupo 182772" clip-path="url(#clip-path-13)">
                <path id="Trazado_236000-2" data-name="Trazado 236000" d="M40.72,57.374v5.747a1.167,1.167,0,0,1-.519-.3l-2.336-2.458a1.5,1.5,0,0,0-.615-.36V54.248a1.5,1.5,0,0,1,.627.364l2.336,2.455a1.192,1.192,0,0,0,.508.308" transform="translate(-37.249 -54.248)"/>
              </g>
            </g>
          </g>
          <g id="Grupo_182777-2" data-name="Grupo 182777" transform="translate(32.966 32.061)" opacity="0.15">
            <g id="Grupo_182776-2" data-name="Grupo 182776">
              <g id="Grupo_182775-2" data-name="Grupo 182775" clip-path="url(#clip-path-14)">
                <path id="Trazado_236001-2" data-name="Trazado 236001" d="M53.181,48.5V54.25a1.227,1.227,0,0,0-.567.171,14.83,14.83,0,0,1-1.265.8s.009-1.314.007-1.494a.541.541,0,0,0-.059-.233l-1.361-2.7a.49.49,0,0,1,.171-.683,15.864,15.864,0,0,0,2.518-1.442,1.126,1.126,0,0,1,.556-.175" transform="translate(-49.868 -48.499)"/>
              </g>
            </g>
          </g>
          <g id="Grupo_182780-2" data-name="Grupo 182780" transform="translate(42.285 29.421)" opacity="0.15">
            <g id="Grupo_182779-2" data-name="Grupo 182779">
              <g id="Grupo_182778-2" data-name="Grupo 182778" clip-path="url(#clip-path-15)">
                <path id="Trazado_236002-2" data-name="Trazado 236002" d="M66.668,44.505c0,.286-.007,5.591-.007,5.743a.287.287,0,0,1-.052.144L64.35,53.537a.654.654,0,0,1-.385.222V48.017a.707.707,0,0,0,.4-.226l2.254-3.148a.213.213,0,0,0,.048-.138" transform="translate(-63.965 -44.505)"/>
              </g>
            </g>
          </g>
          <path id="Trazado_236003-2" data-name="Trazado 236003" d="M10.552,21.467a.091.091,0,0,0,0,.02.531.531,0,0,0,.061.217l1.357,2.69a.488.488,0,0,1-.171.684c-.432.2-.853.416-1.252.643a14.264,14.264,0,0,0-1.262.805,1.459,1.459,0,0,1-.933.159l-5.2-.876a.918.918,0,0,0-.826.241L.065,29.2a.233.233,0,0,0-.048.139.143.143,0,0,1,0,.023c.009.147.156.291.4.365l4.631,1.47a.636.636,0,0,1,.506.613,5.586,5.586,0,0,0-.005,1.774.576.576,0,0,1-.364.627l-4.9,1.552a.312.312,0,0,0-.231.309.592.592,0,0,0,.116.318L2.223,39.25a.961.961,0,0,0,.846.4l5.369-.9a1.641,1.641,0,0,1,1.023.295,15.837,15.837,0,0,0,2.177,1.251c.318.157.5.435.391.644l-1.476,2.924c-.1.209.075.437.4.519l5.451,1.3a1.012,1.012,0,0,0,.879-.163l2.61-2.745a1.238,1.238,0,0,1,.855-.269,29.431,29.431,0,0,0,3.549,0,1.407,1.407,0,0,1,.959.412l2.336,2.458a1.092,1.092,0,0,0,.908.337l5.667-1.357a.4.4,0,0,0,.231-.606l-1.358-2.694a.491.491,0,0,1,.17-.684,15.9,15.9,0,0,0,2.516-1.444,1.417,1.417,0,0,1,.932-.161l5.205.873a.913.913,0,0,0,.826-.241l2.256-3.145a.215.215,0,0,0,.048-.139h0a.019.019,0,0,0,0-.011.273.273,0,0,0-.037-.127l0,0a.618.618,0,0,0-.356-.248l-4.631-1.464c-.325-.105-.545-.375-.506-.613a5.746,5.746,0,0,0,.005-1.774.568.568,0,0,1,.364-.627l4.9-1.553a.308.308,0,0,0,.225-.3s0-.008,0-.013a.537.537,0,0,0-.114-.315l-2.054-2.865a.979.979,0,0,0-.847-.4l-5.37.9a1.661,1.661,0,0,1-1.027-.293c-.334-.231-.693-.457-1.065-.671-.352-.2-.724-.4-1.109-.582-.321-.152-.5-.434-.393-.639l1.478-2.929a.244.244,0,0,0,.026-.115c.005-.172-.161-.336-.426-.4l-5.453-1.3a1.018,1.018,0,0,0-.877.167l-2.608,2.743a1.234,1.234,0,0,1-.855.266,28.662,28.662,0,0,0-3.551.007,1.4,1.4,0,0,1-.958-.417l-2.334-2.455a1.075,1.075,0,0,0-.911-.335l-5.667,1.352a.373.373,0,0,0-.293.374m20.611,8.411c.048.048.1.094.139.144.036.035.065.071.1.1.071.08.138.161.2.245s.145.2.212.3q.062.094.119.19c.019.03.036.061.054.091a3.523,3.523,0,0,1-.273,3.974A6.01,6.01,0,0,1,30.36,36.26a7.5,7.5,0,0,1-.855.558,15.71,15.71,0,0,1-10.812,1.218A12.074,12.074,0,0,1,15.5,36.811a7.7,7.7,0,0,1-.834-.541,5.587,5.587,0,0,1-1.7-1.891.076.076,0,0,1-.012-.026c-.02-.036-.038-.074-.056-.112a1.286,1.286,0,0,1-.052-.118A.813.813,0,0,1,12.791,34,3.516,3.516,0,0,1,13.3,30.52c2.107-2.936,7.938-4.331,13.02-3.114a10.029,10.029,0,0,1,4.844,2.472" transform="translate(-0.006 -6.686)" fill="#12263f"/>
        </g>
      </g>
    </g>
  </g>
</svg>
