<svg xmlns="http://www.w3.org/2000/svg" xmlns:xlink="http://www.w3.org/1999/xlink" width="37.076" height="44.448" viewBox="0 0 37.076 44.448">
  <defs>
    <clipPath id="clip-path">
      <rect id="Rectángulo_361871" data-name="Rectángulo 361871" width="37.076" height="44.448" transform="translate(0 0)" fill="none"/>
    </clipPath>
  </defs>
  <g id="Grupo_1050127" data-name="Grupo 1050127" transform="translate(0 0)">
    <g id="Grupo_1026299" data-name="Grupo 1026299" clip-path="url(#clip-path)">
      <path id="Trazado_767444" data-name="Trazado 767444" d="M.026,1.573c.084-.277.35-.365.652-.188l26.2,15.127a1.374,1.374,0,0,1,.5.537l2.113-1.236a1.388,1.388,0,0,0-.49-.522L2.8.164a1.484,1.484,0,0,0-1.357,0L.678.6a1.53,1.53,0,0,0-.652.971" fill="#fdc77f"/>
      <path id="Trazado_767445" data-name="Trazado 767445" d="M0,1.777V27.983a1.505,1.505,0,0,0,.674,1.174L25.439,43.45l1.44.835a.729.729,0,0,0,.1.052h.015c.324.115.558-.067.558-.449v-26.2a1.343,1.343,0,0,0-.183-.636,1.36,1.36,0,0,0-.5-.537L.678,1.385c-.3-.178-.569-.089-.652.188a.1.1,0,0,1-.011.053A.766.766,0,0,0,0,1.777" fill="#d9953b"/>
      <path id="Trazado_767446" data-name="Trazado 767446" d="M27,44.342c.026.011.052.021.084.032a.455.455,0,0,0,.115.031.967.967,0,0,0,.177.032c.058,0,.12.011.178.011a1.724,1.724,0,0,0,.365-.042,1.211,1.211,0,0,0,.318-.12L29,43.843a1.493,1.493,0,0,0,.678-1.174v-26.2a1.4,1.4,0,0,0-.188-.652l-2.113,1.236a1.35,1.35,0,0,1,.183.637v26.2c0,.381-.235.564-.558.449" fill="#f4a338"/>
      <path id="Trazado_767447" data-name="Trazado 767447" d="M24.186,38.848v-17.3a.891.891,0,0,0-.4-.7L22.7,20.222c-.223-.129-.4-.025-.4.233v17.3a.891.891,0,0,0,.4.7l1.085.626c.223.129.4.024.4-.233" fill="#fafafa"/>
      <path id="Trazado_767448" data-name="Trazado 767448" d="M20.4,36.662V17.178a.891.891,0,0,0-.4-.7l-1.085-.626c-.223-.129-.4-.024-.4.233V35.57a.891.891,0,0,0,.4.7L20,36.9c.223.129.4.024.4-.233" fill="#fafafa"/>
      <path id="Trazado_767449" data-name="Trazado 767449" d="M16.618,34.478V22.464a.891.891,0,0,0-.4-.7l-1.085-.627c-.223-.128-.4-.024-.4.233V33.386a.891.891,0,0,0,.4.7l1.085.626c.223.129.4.024.4-.233" fill="#fafafa"/>
      <path id="Trazado_767450" data-name="Trazado 767450" d="M12.835,32.3V18.237a.891.891,0,0,0-.4-.7l-1.086-.626c-.222-.129-.4-.025-.4.233V31.207a.891.891,0,0,0,.4.7l1.085.626c.223.129.4.024.4-.233" fill="#fafafa"/>
      <path id="Trazado_767451" data-name="Trazado 767451" d="M9.046,30.113V21.944a.891.891,0,0,0-.4-.7l-1.085-.626c-.223-.129-.4-.024-.4.233v8.165a.891.891,0,0,0,.4.7l1.085.628c.222.129.4.025.4-.233" fill="#fafafa"/>
      <path id="Trazado_767452" data-name="Trazado 767452" d="M5.267,27.929V12.813a.891.891,0,0,0-.4-.7l-1.092-.625c-.222-.129-.4-.024-.4.233V26.837a.891.891,0,0,0,.4.7l1.085.626c.223.129.4.024.4-.233" fill="#fafafa"/>
      <path id="Trazado_767453" data-name="Trazado 767453" d="M27.268,27.693,29.5,26.575l7.571,3.578L35.243,31.42Z" fill="#fdc77f"/>
      <path id="Trazado_767454" data-name="Trazado 767454" d="M26.3,35.519l8.944-4.1-7.975-3.727Z" fill="#d9953b"/>
    </g>
  </g>
</svg>
